<?xml version="1.0" encoding="UTF-8" standalone="no"?>
<svg width="38" height="38" viewBox="0 0 38 38" fill="none" xmlns="http://www.w3.org/2000/svg">
<path d="M22.103 15.924C21.516 15.337 20.569 15.337 19.982 15.924C19.982 15.924 2.497 31.287 1.714 32.071C0.541999 33.243 0.541999 35.141 1.714 36.313C2.885 37.484 4.784 37.484 5.956 36.313C6.739 35.53 22.102 18.045 22.102 18.045C22.69 17.458 22.69 16.51 22.103 15.924Z" fill="#AD3F16"/>
<path d="M34.1663 15.1735L22.8528 3.85958L15.7816 10.9305L27.0952 22.2444L34.1663 15.1735Z" fill="#751B0B"/>
<path d="M24.171 20.69L17.352 13.871C16.896 13.415 16.896 12.676 17.352 12.221L24.143 5.43C24.599 4.974 25.338 4.974 25.793 5.43L32.612 12.249C33.068 12.705 33.068 13.444 32.612 13.899L25.821 20.69C25.366 21.146 24.627 21.146 24.171 20.69Z" fill="#D6742D"/>
<path d="M27.784 25.243C27.384 25.243 26.984 25.09 26.678 24.785C26.067 24.174 26.067 23.185 26.678 22.574L34.496 14.756C35.107 14.145 36.096 14.145 36.707 14.756C37.318 15.367 37.318 16.356 36.707 16.967L28.889 24.785C28.585 25.09 28.185 25.243 27.784 25.243Z" fill="#AD3F16"/>
<path d="M14.295 11.754C13.895 11.754 13.495 11.601 13.189 11.296C12.578 10.685 12.578 9.696 13.189 9.085L21.007 1.267C21.618 0.656 22.607 0.656 23.218 1.267C23.829 1.878 23.829 2.867 23.218 3.478L15.4 11.296C15.095 11.601 14.695 11.754 14.295 11.754Z" fill="#AD3F16"/>
</svg>
